<?xml version="1.0" encoding="utf-8"?>
<!-- Generator: Adobe Illustrator 16.0.0, SVG Export Plug-In . SVG Version: 6.00 Build 0)  -->
<!DOCTYPE svg PUBLIC "-//W3C//DTD SVG 1.1//EN" "http://www.w3.org/Graphics/SVG/1.1/DTD/svg11.dtd">
<svg version="1.1" id="Capa_1" xmlns="http://www.w3.org/2000/svg" xmlns:xlink="http://www.w3.org/1999/xlink" x="0px" y="0px"
	 width="110.34px" height="54.952px" viewBox="0 0 110.34 54.952" enable-background="new 0 0 110.34 54.952" xml:space="preserve">
<g>
	<path fill="#93C01F" d="M23.124,18.055c0.329,0.659,0.417,1.225,0.118,1.924c-0.571,1.333-1.33,2.507-2.263,3.551
		c-0.066,0.076-0.122,0.155-0.181,0.233c0.059,0.037,0.118,0.074,0.175,0.111c0.939-1.152,1.921-2.349,2.966-3.627
		c0.292,0.262,0.416,0.585,0.105,1.125c-1.697,2.887-4.241,4.337-6.973,5.182c-0.187-1.604-0.397-3.217-0.562-4.886
		c-0.326-3.294,1.058-6.355,3.617-9.419c0.127-0.15,0.298-0.307,0.469-0.377c1.117-0.46,2.268-0.909,3.597-1.437
		c-0.759,1.651-1.474,3.237-2.176,4.754c-0.604,1.302-1.201,2.554-1.667,3.803c0.75-1.29,1.524-2.626,2.333-4.015
		c0.43,2.645-0.795,4.87-2.068,6.983c0.298-0.366,0.622-0.722,0.899-1.109c0.304-0.423,0.579-0.868,0.839-1.324
		C22.615,19.077,22.845,18.603,23.124,18.055 M18.67,16.112c-0.06-0.015-0.119-0.035-0.18-0.053
		c-0.367,0.923-0.722,1.822-1.072,2.699c0.052,0.019,0.107,0.034,0.159,0.049C17.935,17.931,18.297,17.032,18.67,16.112"/>
	<path fill="#93C01F" d="M15.852,19.282c-0.017,0.635-0.001,1.278-0.065,1.909c-0.025,0.243-0.184,0.516-0.356,0.706
		c-0.331,0.366-0.71,0.685-1.019,1.1c0.467-0.25,0.941-0.502,1.419-0.761c0.053,0.022,0.104,0.043,0.156,0.069
		c-0.114,0.241-0.162,0.574-0.351,0.708c-0.912,0.646-1.832,1.222-2.716,1.833c0.999-0.419,2.024-0.854,3.081-1.302
		c0.25,0.538,0.255,0.655-0.314,0.917c-1.128,0.519-2.249,0.963-3.325,1.417c-0.085,0.037-0.178,0.06-0.251,0.13
		c1.425-0.049,2.759-0.562,4.128-1.209c0.148,0.454,0.101,0.738-0.345,1.035c-1.333,0.886-2.764,1.178-4.238,1.212
		c-0.85,0.019-1.688,0.002-2.573,0.005c-0.073-1.341-0.249-2.741-0.185-4.16c0.039-0.877,0.478-1.751,0.729-2.662
		c0.114-0.406,0.378-0.434,0.714-0.432c1.174,0.01,2.376,0.044,3.605-0.034C14.574,19.724,15.215,19.45,15.852,19.282 M9.245,23.22
		c0.054,0.012,0.11,0.025,0.165,0.037c0.127-0.618,0.258-1.246,0.391-1.884c-0.048-0.012-0.096-0.021-0.143-0.033
		C9.518,21.978,9.379,22.605,9.245,23.22"/>
	<path fill="#93C01F" d="M8.466,25.296c0.033,0.805,0.067,1.632,0.1,2.415c0.746-0.053,1.592-0.111,2.464-0.174
		c-0.037,0.896-0.682,1.199-1.22,1.544c-0.623,0.397-1.279,0.727-1.873,1.138c0.847-0.33,1.717-0.671,2.606-1.016
		c0.034,0.475-0.122,0.817-0.626,0.993c-0.827,0.289-1.61,0.622-2.369,0.988c0.897-0.192,1.819-0.394,2.779-0.602
		c0.068,0.296-0.071,0.502-0.362,0.655c-0.973,0.509-2.042,0.581-3.124,0.527c-0.612-0.027-1.216-0.058-1.851-0.089
		c-0.124-1.522-0.731-3.167-0.157-4.781c0.131-0.369,0.319-0.569,0.703-0.674C6.469,25.968,7.402,25.638,8.466,25.296"/>
	<path fill="#93C01F" d="M12.858,17.959c1.129-0.23,2.285-0.467,3.468-0.709c-0.021,0.78-0.386,1.296-1.211,1.569
		c-1.222,0.401-2.405,0.457-3.582,0.411c-0.921-0.037-1.829-0.037-2.758-0.053c0.169-1.222,0.573-2.489,1.186-3.729
		c0.736-1.489,1.759-2.813,3.187-3.786c0.251-0.171,0.649-0.255,0.904-0.169c1.592,0.542,3.267,0.848,5.164,0.648
		c-1.193,2.271-3.032,3.22-4.873,4.069c0.455-0.128,0.92-0.24,1.38-0.396c0.47-0.161,0.938-0.37,1.456-0.575
		c-0.164,0.646-0.438,1.141-1.037,1.371c-1.124,0.435-2.216,0.857-3.277,1.268C12.863,17.906,12.86,17.934,12.858,17.959
		 M11.482,13.834c0.039,0.053,0.078,0.105,0.117,0.159c0.498-0.485,1.002-0.979,1.516-1.483c-0.036-0.046-0.071-0.096-0.105-0.143
		C12.491,12.865,11.98,13.355,11.482,13.834"/>
	<path fill="#93C01F" d="M5.232,19.086c1.081-0.6,2.199-1.218,3.35-1.855c0.024,0.746-0.551,1.081-0.996,1.476
		c-1.228,1.091-2.642,1.542-4.048,1.843c-1.156,0.25-2.288,0.46-3.49,0.699c0.313-0.901,0.58-1.814,0.948-2.69
		c0.645-1.539,1.554-2.937,2.866-4.043c0.293-0.246,0.561-0.292,0.904-0.183c1.104,0.348,2.231,0.671,3.469,1.041
		c-0.728,0.64-1.451,1.28-2.157,1.902c0.023,0.044,0.048,0.087,0.072,0.128c1.052-0.755,2.141-1.542,3.23-2.325
		c-0.174,0.681-0.303,0.955-1.186,1.678c-1,0.817-2.016,1.525-2.976,2.244C5.223,19.028,5.228,19.056,5.232,19.086 M3.443,15.948
		c-0.839,0.644-1.432,1.411-1.784,2.477C2.251,17.602,2.82,16.812,3.443,15.948"/>
	<path fill="#93C01F" d="M19.384,31.599c0.708-0.941,1.443-1.921,2.211-2.942c0.223,0.198,0.268,0.462,0.086,0.817
		c-0.75,1.466-1.747,2.72-2.86,3.824c0.043,0.032,0.09,0.06,0.137,0.091c1.032-1.087,2.113-2.228,3.246-3.424
		c0.243,0.275,0.262,0.558,0.019,0.909c-1.514,2.223-3.687,3.537-6.059,4.426c-0.074,0.028-0.153,0.051-0.293,0.093
		c0.055-0.316,0.118-0.602,0.149-0.894c0.135-1.243,0.224-2.534,0.412-3.854c0.174-1.212,0.646-2.388,1.55-3.437
		c0.221-0.256,0.529-0.479,0.846-0.647c0.714-0.382,1.477-0.727,2.167-1.063c0.564,2.3-0.279,4.292-1.79,6.015
		C19.263,31.543,19.325,31.572,19.384,31.599 M19.944,28.873c-0.057-0.012-0.112-0.024-0.172-0.037
		c-0.376,0.69-0.745,1.365-1.109,2.023c0.048,0.022,0.097,0.041,0.144,0.06C19.179,30.254,19.555,29.57,19.944,28.873"/>
	<path fill="#93C01F" d="M14.412,8.464c-1.266,0.485-2.329,0.892-3.421,1.31c0.433,0.297,0.868,0.592,1.468,1.002
		c-1.096,0.553-2.03,1.027-2.942,1.489c0.003,0.033,0.007,0.066,0.011,0.099c0.754-0.199,1.52-0.401,2.3-0.608
		c0.019,0.055,0.039,0.109,0.059,0.163c-1.149,0.647-2.263,1.272-3.283,1.844c0.207-0.035,0.519-0.069,0.831-0.14
		c0.314-0.071,0.626-0.181,1.018-0.295c-0.35,0.662-0.868,0.939-1.366,0.985c-0.788,0.078-1.59,0.093-2.334-0.059
		c-1.257-0.261-2.469-0.665-3.676-1.001c1.224-2.574,3.082-4.75,5.852-5.936C9.261,7.174,9.604,7.07,9.95,6.967
		c1.102-0.329,2.163-0.404,3.044,0.485C13.351,7.814,13.812,8.042,14.412,8.464 M10.201,7.891c-0.018-0.078-0.037-0.157-0.054-0.237
		C9.414,8.071,8.695,8.478,7.992,8.877c0.024,0.07,0.045,0.14,0.068,0.211C8.76,8.697,9.473,8.297,10.201,7.891"/>
	<path fill="#93C01F" d="M28.756,21.607c0.118,0.324,0.31,0.631,0.33,0.97c0.13,2.414-0.895,4.538-2.475,6.42
		c-0.888,1.065-2.025,1.872-3.069,2.583c-0.522-1.314-1.075-2.632-1.573-3.994c-0.168-0.45-0.218-0.959-0.212-1.457
		c0.019-0.73,0.292-1.402,0.933-2.027c0.734-0.714,1.368-1.548,2.102-2.396c0.428,0.525,0.87,1.069,1.324,1.628
		c0.298-1.14,0.59-2.255,0.889-3.405c0.099-0.021,0.192-0.044,0.292-0.066c0.168,0.432,0.436,0.839,0.479,1.297
		c0.229,2.361-0.273,4.59-1.635,6.623c-0.062,0.09-0.094,0.189-0.193,0.417c1.635-2,2.437-4.15,2.599-6.534
		C28.612,21.647,28.687,21.628,28.756,21.607 M24.442,28.196c0.987-1.085,1.535-2.222,1.479-2.993
		C25.443,26.176,24.927,27.211,24.442,28.196"/>
	<path fill="#93C01F" d="M3.471,26.299c-0.239-0.718-0.251-1.442-0.208-2.171c0.058-0.988,0.323-1.924,0.754-2.815
		c0.073-0.152,0.219-0.314,0.364-0.352c1.316-0.333,2.583-0.893,3.799-1.936c-0.05,0.469-0.09,0.836-0.134,1.237
		c0.338-0.134,0.653-0.255,0.999-0.392c-0.252,1.119-0.555,1.494-2.677,3.559c0.629-0.382,1.271-0.771,1.96-1.188
		c0.006,0.498-0.022,0.923-0.483,1.202c-0.787,0.474-1.527,0.976-2.244,1.518c0.856-0.354,1.733-0.719,2.657-1.101
		c0.137,0.411,0.078,0.78-0.388,0.962c-0.771,0.294-1.524,0.587-2.272,0.838C4.895,25.896,4.189,26.086,3.471,26.299"/>
	<path fill="#93C01F" d="M14.012,30.667c0.659-0.4,1.332-0.811,2.06-1.259c-0.034,0.706-0.661,0.96-1.111,1.272
		c-0.692,0.478-1.448,0.854-2.124,1.317c0.938-0.389,1.905-0.79,2.9-1.199c0.129,0.438-0.171,0.642-0.544,0.86
		c-1.229,0.711-2.536,1.057-3.945,1.042c-0.233-0.004-0.471-0.048-0.769-0.083c0.307-1.416,0.61-2.855,0.946-4.351
		c0.111-0.489,0.421-0.717,1.01-0.732c1.288-0.028,2.522-0.396,3.658-1.147c0.04-0.028,0.104-0.024,0.23-0.052
		c-0.109,0.371-0.205,0.702-0.313,1.065c0.387-0.087,0.748-0.167,1.184-0.267C16.453,28.706,15.124,29.641,14.012,30.667"/>
	<path fill="#93C01F" d="M1.169,31.081c-0.404-1.296-0.558-2.58-0.147-3.827c0.036-0.11,0.096-0.239,0.187-0.284
		c0.549-0.277,1.121-0.542,1.713-0.825c0.09,0.28,0.189,0.592,0.291,0.912c0.374-0.165,0.731-0.32,1.106-0.486
		c0.047,1.359-0.942,1.794-1.634,2.458c0.441-0.223,0.891-0.447,1.366-0.686c0.162,0.307,0.05,0.512-0.18,0.662
		c-0.54,0.352-1.071,0.689-1.557,1.091c0.599-0.239,1.211-0.479,1.833-0.728c0.211,0.436,0.052,0.665-0.326,0.787
		c-0.452,0.146-0.894,0.301-1.329,0.452C2.054,30.761,1.625,30.918,1.169,31.081"/>
	<path fill="#93C01F" d="M6.049,35.432c0.183-0.861,0.372-1.705,0.545-2.571c0.091-0.456,0.311-0.667,0.884-0.628
		c0.901,0.065,1.779-0.094,2.701-0.531c-0.141,0.479-0.253,0.858-0.37,1.256c0.307,0.063,0.611,0.121,0.918,0.184
		c0.022,0.034,0.044,0.068,0.066,0.102c-0.684,0.329-1.352,0.65-2.004,0.964c0.003,0.013,0.006,0.026,0.011,0.035
		c0.513-0.11,1.033-0.224,1.715-0.37c-0.179,0.192-0.251,0.344-0.384,0.4c-0.726,0.311-1.448,0.591-2.235,0.908
		c0.774-0.128,1.485-0.243,2.344-0.383c-0.181,0.165-0.268,0.298-0.399,0.357C8.644,35.699,7.354,35.693,6.049,35.432"/>
	<path fill="#93C01F" d="M2.668,34.287c-0.133-0.963-0.259-1.863-0.392-2.787c-0.039-0.277,0.087-0.379,0.333-0.444
		c0.572-0.148,1.136-0.345,1.799-0.551c0.037,0.581,0.073,1.164,0.109,1.729c0.535-0.027,1.119-0.062,1.736-0.097
		C6.2,32.532,6.2,32.532,4.938,32.914c0.165,0.013,0.331,0.037,0.494,0.037c0.181,0.005,0.361-0.015,0.554-0.024
		c0.075,0.363-0.051,0.509-0.323,0.56c-0.481,0.086-0.954,0.177-1.266,0.236c0.369,0.063,0.907,0.152,1.453,0.242
		c0.054,0.351,0.054,0.407-0.404,0.407C4.534,34.372,3.631,34.319,2.668,34.287"/>
	<path fill="#93C01F" d="M1.327,25.741c0.449-0.273,0.905-0.55,1.39-0.846c0.135,0.321,0.139,0.601-0.162,0.762
		c-0.808,0.423-1.599,0.83-2.365,1.226c-0.042-0.035-0.084-0.066-0.125-0.1C0.042,26.412,0.003,26.033,0,25.66
		c-0.009-1.392,0.298-2.687,1.086-3.798c0.126-0.176,0.348-0.308,0.557-0.361c0.561-0.137,1.145-0.216,1.764-0.329
		c-0.318,1.35-0.69,2.542-1.648,3.301c0.316-0.199,0.638-0.4,0.962-0.606C2.486,24.725,1.822,25.137,1.327,25.741"/>
	<path fill="#93C01F" d="M15.591,32.053c0.064,0.631-0.055,1.088-0.542,1.444c-0.742,0.548-1.418,1.12-2.075,1.703
		c0.81-0.463,1.643-0.944,2.576-1.479c-0.068,0.229-0.06,0.497-0.208,0.649c-1.04,1.091-3.304,1.813-4.941,1.646
		c0.214-0.888,0.335-1.83,0.922-2.625c0.073-0.097,0.208-0.209,0.331-0.215C13.031,33.131,14.316,32.768,15.591,32.053
		 M12.682,34.351c0.028,0.039,0.056,0.079,0.083,0.116c0.384-0.248,0.774-0.503,1.168-0.762c-0.03-0.033-0.061-0.067-0.091-0.104
		C13.449,33.853,13.062,34.104,12.682,34.351"/>
	<path fill="#93C01F" d="M17.748,8.781c2.304-0.214,4.979-1.901,7.018-0.071c-2.319,3-9.084,3.565-11.884,1.221
		c2.422-1.107,4.948-2.55,7.762-2.319C19.657,8.01,18.692,8.4,17.748,8.781"/>
	<path fill="#93C01F" d="M25.617,9.473c2.101,1.847,0.689,4.685,0.739,7.006c0.28-0.976,0.56-1.977,0.846-2.996
		c0.553,2.745-0.616,5.411-1.423,7.916C23.137,19.562,22.888,12.787,25.617,9.473"/>
	<path fill="#93C01F" d="M27.575,10.77c1.323,0.936,1.697,2.204,1.796,3.636c0.094,1.361,0.311,2.661,0.61,3.904
		c-0.032-1.281-0.057-2.592-0.088-3.935c0.081-0.019,0.155-0.041,0.23-0.059c1.175,2.57,1.236,5.321,0.484,8.273
		c-0.969-1.167-1.876-2.211-2.716-3.313c-0.205-0.264-0.311-0.706-0.217-1.053C28.352,15.751,28.576,13.262,27.575,10.77"/>
	<path fill="#93C01F" d="M19.422,5.037c-1.321,0.118-2.613,0.233-3.878,0.347c-0.008,0.023-0.017,0.045-0.025,0.068
		c0.762,0.06,1.528,0.143,2.313,0.173c0.559,0.023,1.132,0.003,1.717-0.051c1.43-0.135,2.674,0.194,3.668,1.271
		c-0.243-0.031-0.423-0.042-0.584-0.078c-1.854-0.395-3.76-0.263-5.605,0.526c-1.299,0.557-2.311,0.458-3.253-0.256
		c-0.797-0.603-1.604-1.188-2.471-1.828c2.748-1.064,5.485-1.281,8.177-0.423C19.461,4.871,19.443,4.955,19.422,5.037"/>
	<path fill="#93C01F" d="M26.854,8.552c-0.423-0.377-0.808-0.721-1.243-1.111c1.013-1.645,2.387-3.088,3.947-4.447
		c0.23-0.199,0.746,0.033,1.274,0.077c-0.92,1.025-1.61,1.787-2.274,2.533c0.012,0.02,0.024,0.042,0.043,0.063
		c0.826-0.649,1.672-1.317,2.537-1.996c0.019,0.04,0.037,0.081,0.056,0.123C29.688,5.446,28.246,7.024,26.854,8.552"/>
</g>
<g>
	<path fill="#93C01F" d="M87.217,18.251c0.278,0.547,0.51,1.022,0.77,1.473c0.262,0.457,0.536,0.901,0.84,1.324
		c0.277,0.387,0.601,0.743,0.899,1.109c-1.272-2.113-2.498-4.339-2.068-6.983c0.81,1.389,1.584,2.726,2.332,4.015
		c-0.466-1.249-1.063-2.501-1.666-3.803c-0.703-1.517-1.417-3.103-2.176-4.754c1.329,0.528,2.479,0.977,3.597,1.437
		c0.171,0.07,0.342,0.227,0.47,0.377c2.559,3.063,3.942,6.125,3.616,9.419c-0.164,1.669-0.375,3.282-0.562,4.886
		c-2.732-0.845-5.275-2.295-6.973-5.182c-0.311-0.54-0.186-0.863,0.106-1.125c1.044,1.277,2.027,2.474,2.967,3.627
		c0.056-0.038,0.113-0.075,0.173-0.112c-0.06-0.078-0.115-0.158-0.18-0.233c-0.933-1.044-1.691-2.218-2.264-3.551
		C86.801,19.476,86.888,18.91,87.217,18.251 M91.67,16.309c0.373,0.92,0.736,1.818,1.092,2.694c0.054-0.015,0.108-0.03,0.159-0.049
		c-0.349-0.877-0.704-1.775-1.071-2.698C91.79,16.274,91.73,16.293,91.67,16.309"/>
	<path fill="#93C01F" d="M94.489,19.479c0.637,0.168,1.276,0.441,1.906,0.482c1.23,0.078,2.431,0.044,3.604,0.034
		c0.337-0.002,0.6,0.026,0.714,0.433c0.252,0.91,0.689,1.784,0.729,2.661c0.063,1.419-0.112,2.819-0.186,4.16
		c-0.886-0.003-1.724,0.013-2.573-0.005c-1.473-0.035-2.904-0.326-4.237-1.212c-0.446-0.297-0.494-0.581-0.345-1.035
		c1.368,0.647,2.703,1.159,4.128,1.208c-0.073-0.07-0.167-0.093-0.252-0.13c-1.074-0.454-2.197-0.898-3.324-1.417
		c-0.569-0.261-0.565-0.379-0.314-0.917c1.057,0.447,2.081,0.882,3.08,1.302c-0.885-0.612-1.804-1.188-2.716-1.833
		c-0.188-0.134-0.237-0.467-0.35-0.708c0.05-0.025,0.102-0.046,0.155-0.069c0.479,0.259,0.952,0.511,1.418,0.761
		c-0.308-0.415-0.688-0.733-1.018-1.1c-0.173-0.19-0.33-0.463-0.357-0.706C94.489,20.757,94.505,20.113,94.489,19.479
		 M101.096,23.417c-0.135-0.615-0.273-1.243-0.414-1.879c-0.045,0.012-0.093,0.021-0.142,0.033c0.134,0.638,0.264,1.266,0.392,1.884
		C100.985,23.442,101.043,23.429,101.096,23.417"/>
	<path fill="#93C01F" d="M101.875,25.493c-0.033,0.806-0.068,1.632-0.1,2.415c-0.746-0.053-1.592-0.111-2.465-0.174
		c0.037,0.896,0.682,1.199,1.221,1.544c0.623,0.397,1.278,0.727,1.873,1.138c-0.848-0.33-1.718-0.671-2.607-1.016
		c-0.034,0.475,0.121,0.817,0.627,0.993c0.826,0.289,1.608,0.622,2.369,0.988c-0.898-0.192-1.819-0.394-2.779-0.602
		c-0.069,0.296,0.071,0.502,0.36,0.655c0.974,0.509,2.043,0.581,3.126,0.527c0.611-0.027,1.215-0.058,1.849-0.089
		c0.125-1.522,0.732-3.167,0.158-4.781c-0.131-0.369-0.319-0.569-0.703-0.674C103.871,26.164,102.938,25.834,101.875,25.493"/>
	<path fill="#93C01F" d="M97.482,18.155c-0.003-0.025-0.006-0.053-0.007-0.082c-1.062-0.41-2.153-0.833-3.278-1.268
		c-0.6-0.23-0.873-0.724-1.036-1.37c0.52,0.204,0.986,0.413,1.456,0.574c0.461,0.156,0.926,0.267,1.381,0.396
		c-1.842-0.849-3.681-1.797-4.873-4.069c1.897,0.2,3.571-0.105,5.163-0.648c0.255-0.086,0.653-0.002,0.905,0.169
		c1.427,0.973,2.45,2.297,3.187,3.786c0.612,1.24,1.016,2.507,1.186,3.729c-0.929,0.016-1.836,0.016-2.758,0.053
		c-1.177,0.046-2.36-0.009-3.582-0.411c-0.825-0.273-1.189-0.789-1.211-1.569C95.198,17.688,96.354,17.925,97.482,18.155
		 M98.859,14.031c-0.499-0.479-1.01-0.97-1.528-1.467c-0.034,0.047-0.069,0.096-0.106,0.143c0.515,0.504,1.02,0.998,1.518,1.483
		C98.779,14.136,98.819,14.083,98.859,14.031"/>
	<path fill="#93C01F" d="M105.107,19.283c0.006-0.031,0.011-0.059,0.015-0.087c-0.959-0.719-1.976-1.427-2.976-2.244
		c-0.882-0.724-1.011-0.998-1.186-1.678c1.09,0.783,2.178,1.569,3.231,2.325c0.023-0.04,0.048-0.084,0.071-0.128
		c-0.705-0.622-1.43-1.261-2.157-1.901c1.238-0.37,2.364-0.693,3.468-1.041c0.344-0.109,0.61-0.062,0.905,0.183
		c1.311,1.106,2.221,2.505,2.865,4.043c0.369,0.876,0.634,1.79,0.947,2.69c-1.202-0.239-2.333-0.45-3.489-0.699
		c-1.406-0.301-2.82-0.752-4.049-1.842c-0.444-0.395-1.019-0.73-0.995-1.476C102.908,18.064,104.027,18.683,105.107,19.283
		 M106.897,16.144c0.622,0.864,1.192,1.654,1.784,2.477C108.329,17.555,107.737,16.788,106.897,16.144"/>
	<path fill="#93C01F" d="M90.957,31.795c0.06-0.027,0.12-0.056,0.18-0.086c-1.511-1.724-2.354-3.715-1.789-6.015
		c0.689,0.336,1.451,0.681,2.165,1.063c0.316,0.168,0.626,0.391,0.846,0.647c0.904,1.05,1.378,2.225,1.55,3.437
		c0.188,1.32,0.277,2.611,0.413,3.854c0.03,0.292,0.094,0.577,0.149,0.894c-0.141-0.042-0.22-0.064-0.294-0.093
		c-2.372-0.889-4.545-2.203-6.059-4.426c-0.243-0.352-0.225-0.634,0.02-0.909c1.132,1.196,2.213,2.337,3.245,3.424
		c0.046-0.03,0.093-0.059,0.137-0.091c-1.113-1.104-2.111-2.358-2.86-3.824c-0.182-0.355-0.137-0.62,0.086-0.817
		C89.515,29.875,90.248,30.854,90.957,31.795 M90.396,29.069c0.389,0.697,0.766,1.381,1.138,2.045
		c0.047-0.019,0.095-0.037,0.143-0.06c-0.363-0.658-0.732-1.333-1.108-2.023C90.51,29.045,90.454,29.058,90.396,29.069"/>
	<path fill="#93C01F" d="M95.928,8.66c0.602-0.421,1.062-0.649,1.419-1.012c0.881-0.889,1.942-0.814,3.044-0.485
		c0.345,0.103,0.689,0.207,1.021,0.35c2.77,1.186,4.627,3.362,5.853,5.936c-1.207,0.336-2.42,0.74-3.678,1.001
		c-0.744,0.152-1.547,0.137-2.334,0.059c-0.496-0.046-1.017-0.323-1.365-0.985c0.391,0.115,0.704,0.225,1.018,0.295
		c0.313,0.071,0.624,0.105,0.831,0.14c-1.02-0.572-2.134-1.197-3.283-1.844c0.021-0.054,0.04-0.108,0.059-0.163
		c0.78,0.207,1.547,0.409,2.301,0.608c0.002-0.033,0.008-0.066,0.01-0.099c-0.912-0.462-1.847-0.936-2.942-1.489
		c0.602-0.41,1.036-0.705,1.471-1.002C98.257,9.552,97.194,9.145,95.928,8.66 M100.14,8.087c0.729,0.407,1.441,0.806,2.141,1.198
		c0.022-0.072,0.044-0.142,0.068-0.212c-0.703-0.399-1.423-0.806-2.154-1.223C100.175,7.93,100.156,8.009,100.14,8.087"/>
	<path fill="#93C01F" d="M81.584,21.804c0.069,0.021,0.144,0.04,0.212,0.058c0.162,2.384,0.964,4.535,2.598,6.534
		c-0.098-0.227-0.13-0.326-0.192-0.417c-1.362-2.032-1.863-4.261-1.636-6.623c0.046-0.458,0.313-0.865,0.48-1.297
		c0.099,0.022,0.192,0.044,0.292,0.066c0.299,1.15,0.591,2.266,0.889,3.405c0.454-0.559,0.895-1.103,1.324-1.628
		c0.732,0.848,1.366,1.683,2.102,2.396c0.639,0.625,0.912,1.296,0.931,2.027c0.007,0.497-0.042,1.007-0.211,1.457
		c-0.497,1.362-1.051,2.68-1.571,3.994c-1.046-0.711-2.183-1.518-3.07-2.583c-1.581-1.882-2.605-4.006-2.476-6.42
		C81.273,22.435,81.468,22.127,81.584,21.804 M85.898,28.393c-0.485-0.986-1-2.021-1.479-2.993
		C84.362,26.171,84.911,27.308,85.898,28.393"/>
	<path fill="#93C01F" d="M106.869,26.496c0.239-0.717,0.252-1.442,0.209-2.171c-0.058-0.988-0.323-1.924-0.754-2.815
		c-0.073-0.153-0.219-0.314-0.365-0.352c-1.315-0.333-2.581-0.893-3.799-1.937c0.05,0.469,0.09,0.836,0.135,1.237
		c-0.338-0.134-0.652-0.255-0.999-0.392c0.252,1.119,0.557,1.495,2.676,3.559c-0.629-0.382-1.271-0.771-1.959-1.188
		c-0.007,0.498,0.022,0.923,0.484,1.202c0.785,0.474,1.526,0.976,2.243,1.518c-0.855-0.354-1.734-0.719-2.657-1.101
		c-0.137,0.411-0.077,0.78,0.388,0.962c0.771,0.294,1.523,0.587,2.273,0.838C105.446,26.092,106.15,26.282,106.869,26.496"/>
	<path fill="#93C01F" d="M96.328,30.863c-0.658-0.4-1.332-0.811-2.059-1.259c0.033,0.706,0.66,0.961,1.11,1.272
		c0.692,0.478,1.447,0.854,2.124,1.317c-0.939-0.389-1.905-0.79-2.9-1.199c-0.129,0.438,0.171,0.642,0.544,0.86
		c1.229,0.711,2.536,1.057,3.945,1.042c0.233-0.004,0.473-0.048,0.77-0.082c-0.308-1.417-0.61-2.856-0.946-4.352
		c-0.109-0.49-0.42-0.718-1.009-0.732c-1.29-0.028-2.523-0.396-3.659-1.147c-0.04-0.028-0.104-0.024-0.23-0.052
		c0.108,0.371,0.205,0.702,0.313,1.065c-0.388-0.087-0.748-0.167-1.184-0.267C93.887,28.902,95.217,29.837,96.328,30.863"/>
	<path fill="#93C01F" d="M109.171,31.277c0.404-1.296,0.559-2.58,0.147-3.827c-0.036-0.11-0.096-0.239-0.186-0.284
		c-0.55-0.277-1.121-0.542-1.714-0.825c-0.091,0.28-0.188,0.592-0.289,0.912c-0.375-0.165-0.732-0.32-1.106-0.485
		c-0.048,1.358,0.941,1.793,1.633,2.458c-0.442-0.223-0.891-0.448-1.366-0.687c-0.162,0.307-0.05,0.512,0.18,0.662
		c0.54,0.352,1.071,0.689,1.557,1.091c-0.597-0.239-1.21-0.479-1.834-0.728c-0.211,0.436-0.05,0.665,0.327,0.787
		c0.452,0.146,0.894,0.301,1.329,0.452C108.286,30.958,108.716,31.115,109.171,31.277"/>
	<path fill="#93C01F" d="M104.29,35.628c-0.183-0.861-0.371-1.705-0.544-2.571c-0.093-0.456-0.31-0.667-0.885-0.627
		c-0.9,0.064-1.778-0.095-2.7-0.532c0.142,0.479,0.253,0.858,0.37,1.256c-0.307,0.063-0.61,0.121-0.919,0.184
		c-0.022,0.034-0.043,0.068-0.065,0.102c0.685,0.329,1.353,0.65,2.006,0.964c-0.005,0.013-0.009,0.026-0.013,0.035
		c-0.513-0.109-1.033-0.224-1.715-0.37c0.178,0.192,0.252,0.344,0.385,0.401c0.725,0.31,1.447,0.59,2.233,0.907
		c-0.774-0.128-1.484-0.243-2.343-0.383c0.181,0.165,0.267,0.298,0.398,0.357C101.695,35.895,102.987,35.889,104.29,35.628"/>
	<path fill="#93C01F" d="M107.673,34.483c0.133-0.963,0.259-1.863,0.391-2.787c0.04-0.277-0.086-0.379-0.332-0.444
		c-0.571-0.148-1.136-0.345-1.799-0.55c-0.037,0.58-0.074,1.163-0.108,1.729c-0.536-0.028-1.12-0.063-1.736-0.098
		c0.053,0.396,0.053,0.396,1.314,0.777c-0.165,0.013-0.332,0.037-0.494,0.037c-0.182,0.005-0.36-0.014-0.554-0.024
		c-0.074,0.363,0.05,0.509,0.322,0.56c0.481,0.086,0.953,0.177,1.267,0.236c-0.37,0.063-0.907,0.152-1.454,0.242
		c-0.053,0.351-0.053,0.407,0.404,0.407C105.806,34.568,106.71,34.515,107.673,34.483"/>
	<path fill="#93C01F" d="M109.013,25.938c-0.448-0.273-0.904-0.551-1.389-0.847c-0.134,0.321-0.139,0.601,0.162,0.762
		c0.808,0.423,1.599,0.83,2.365,1.226c0.043-0.035,0.085-0.066,0.125-0.1c0.022-0.37,0.061-0.75,0.063-1.122
		c0.011-1.392-0.297-2.687-1.085-3.798c-0.126-0.176-0.348-0.308-0.558-0.361c-0.56-0.136-1.144-0.216-1.763-0.329
		c0.316,1.349,0.689,2.542,1.647,3.3c-0.315-0.199-0.638-0.4-0.962-0.606C107.854,24.921,108.519,25.333,109.013,25.938"/>
	<path fill="#93C01F" d="M94.749,32.25c1.275,0.715,2.561,1.078,3.938,1.125c0.122,0.007,0.258,0.118,0.331,0.215
		c0.587,0.795,0.708,1.737,0.922,2.625c-1.638,0.166-3.9-0.556-4.94-1.646c-0.148-0.152-0.141-0.42-0.208-0.649
		c0.933,0.534,1.766,1.016,2.576,1.479c-0.657-0.583-1.334-1.155-2.075-1.703C94.805,33.337,94.686,32.88,94.749,32.25
		 M97.659,34.547c-0.381-0.247-0.769-0.498-1.16-0.75c-0.03,0.037-0.063,0.071-0.092,0.104c0.396,0.259,0.786,0.514,1.169,0.762
		C97.603,34.626,97.631,34.586,97.659,34.547"/>
	<path fill="#93C01F" d="M92.593,8.977c-2.304-0.214-4.979-1.901-7.019-0.071c2.319,3,9.085,3.565,11.886,1.221
		c-2.423-1.107-4.947-2.549-7.763-2.319C90.684,8.207,91.647,8.597,92.593,8.977"/>
	<path fill="#93C01F" d="M84.723,9.669c-2.1,1.847-0.689,4.685-0.737,7.006c-0.281-0.976-0.56-1.977-0.847-2.996
		c-0.553,2.745,0.616,5.412,1.424,7.916C87.204,19.759,87.453,12.983,84.723,9.669"/>
	<path fill="#93C01F" d="M82.765,10.966c-1.322,0.936-1.695,2.204-1.796,3.636c-0.093,1.361-0.311,2.661-0.609,3.904
		c0.032-1.281,0.058-2.592,0.088-3.935c-0.081-0.019-0.155-0.041-0.229-0.059c-1.176,2.57-1.236,5.32-0.485,8.272
		c0.97-1.167,1.877-2.211,2.717-3.313c0.204-0.264,0.311-0.706,0.218-1.053C81.988,15.948,81.765,13.458,82.765,10.966"/>
	<path fill="#93C01F" d="M90.918,5.233c1.321,0.118,2.613,0.233,3.879,0.347c0.008,0.023,0.017,0.045,0.024,0.068
		c-0.762,0.06-1.527,0.143-2.313,0.174c-0.559,0.023-1.132,0.003-1.718-0.051c-1.429-0.135-2.673,0.194-3.667,1.271
		C87.365,7.012,87.546,7,87.708,6.965c1.854-0.395,3.76-0.263,5.604,0.526c1.299,0.557,2.31,0.458,3.255-0.256
		c0.796-0.603,1.603-1.188,2.47-1.828c-2.747-1.064-5.484-1.281-8.178-0.423C90.878,5.067,90.896,5.151,90.918,5.233"/>
	<path fill="#93C01F" d="M83.486,8.749c0.423-0.377,0.81-0.721,1.243-1.111c-1.012-1.645-2.387-3.087-3.946-4.447
		c-0.231-0.199-0.746,0.033-1.273,0.077c0.919,1.026,1.608,1.787,2.273,2.533c-0.012,0.02-0.024,0.042-0.043,0.063
		c-0.827-0.649-1.673-1.317-2.536-1.996c-0.019,0.04-0.037,0.081-0.056,0.123C80.653,5.642,82.095,7.22,83.486,8.749"/>
</g>
<g>
	<path fill="#39A935" d="M49.879,21c-0.25,0.763-0.475,1.417-0.652,2.075c-0.181,0.664-0.337,1.329-0.449,2.002
		c-0.102,0.616-0.13,1.244-0.193,1.858c0.777-3.133,1.703-6.326,4.548-8.376c-0.537,2.034-1.056,3.988-1.558,5.874
		c0.726-1.586,1.332-3.298,1.979-5.061c0.753-2.055,1.56-4.183,2.385-6.413c0.742,1.718,1.391,3.198,1.999,4.659
		c0.093,0.223,0.106,0.526,0.085,0.784c-0.466,5.202-2.019,9.316-5.369,12.063c-1.698,1.393-3.386,2.688-5.042,4.002
		c-1.748-3.312-2.758-7.007-1.657-11.248c0.212-0.787,0.626-0.972,1.139-0.943c-0.215,2.149-0.414,4.166-0.611,6.103
		c0.086,0.017,0.174,0.036,0.264,0.057c0.017-0.127,0.039-0.252,0.048-0.382c0.104-1.83,0.488-3.619,1.192-5.381
		C48.36,21.747,48.965,21.305,49.879,21 M55.798,23.323c-0.506,1.197-1,2.363-1.483,3.504c0.063,0.034,0.128,0.071,0.193,0.101
		c0.489-1.134,0.99-2.294,1.505-3.489C55.94,23.402,55.867,23.365,55.798,23.323"/>
	<path fill="#39A935" d="M55.473,28.866c0.435,0.745,0.773,1.589,1.318,2.211c1.066,1.21,2.208,2.29,3.304,3.365
		c0.314,0.311,0.532,0.579,0.26,1.062c-0.608,1.074-1.012,2.29-1.785,3.138c-1.256,1.373-2.714,2.505-4.023,3.679
		c-0.818-0.822-1.607-1.584-2.377-2.388c-1.331-1.394-2.385-2.989-2.799-5.043c-0.137-0.688,0.081-0.993,0.638-1.276
		c0.669,1.867,1.429,3.574,2.703,4.939c-0.003-0.134-0.068-0.241-0.113-0.354c-0.575-1.415-1.203-2.864-1.766-4.387
		c-0.284-0.77-0.171-0.876,0.558-1.14c0.565,1.392,1.11,2.742,1.647,4.054c-0.253-1.384-0.571-2.768-0.817-4.208
		c-0.05-0.298,0.213-0.652,0.332-0.981c0.07,0.025,0.137,0.053,0.208,0.081c0.205,0.682,0.409,1.353,0.608,2.017
		c0.1-0.669,0.043-1.313,0.076-1.96c0.016-0.335,0.123-0.733,0.323-0.982C54.291,30.048,54.901,29.468,55.473,28.866 M57.942,38.624
		c0.444-0.695,0.898-1.403,1.355-2.122c-0.051-0.031-0.104-0.065-0.16-0.102c-0.467,0.714-0.927,1.416-1.381,2.105
		C57.817,38.545,57.883,38.585,57.942,38.624"/>
	<path fill="#39A935" d="M56.743,41.266c-0.777,0.715-1.573,1.447-2.327,2.143c-0.641-0.74-1.37-1.577-2.121-2.443
		c-0.793,0.865-0.478,1.741-0.298,2.559c0.208,0.947,0.51,1.856,0.679,2.787c-0.479-1.09-0.968-2.21-1.472-3.352
		c-0.472,0.407-0.644,0.867-0.34,1.499c0.497,1.032,0.914,2.063,1.278,3.106c-0.654-1.01-1.319-2.047-2.015-3.129
		c-0.337,0.211-0.399,0.531-0.272,0.938c0.43,1.375,1.353,2.43,2.404,3.383c0.592,0.54,1.179,1.069,1.793,1.628
		c1.525-1.293,3.609-2.252,4.571-4.276c0.219-0.465,0.23-0.824-0.027-1.275C57.969,43.735,57.41,42.564,56.743,41.266"/>
	<path fill="#39A935" d="M59.467,30.411c0.021-0.025,0.045-0.053,0.07-0.081c-0.603-1.362-1.223-2.763-1.861-4.207
		c-0.342-0.769-0.137-1.478,0.31-2.228c0.291,0.669,0.53,1.295,0.815,1.878c0.282,0.571,0.609,1.104,0.913,1.645
		c-0.918-2.49-1.743-5.069-0.744-8.275c1.57,1.941,3.402,3.208,5.378,4.178c0.314,0.157,0.606,0.602,0.681,0.994
		c0.42,2.222,0.141,4.393-0.557,6.454c-0.579,1.714-1.379,3.261-2.352,4.546c-0.876-0.844-1.716-1.684-2.603-2.5
		c-1.132-1.049-2.176-2.193-2.934-3.696c-0.511-1.017-0.371-1.832,0.332-2.573C57.786,27.864,58.635,29.153,59.467,30.411
		 M64.56,27.868c-0.02-0.905-0.038-1.832-0.057-2.772c-0.076,0.011-0.152,0.024-0.231,0.033c0.011,0.943,0.019,1.867,0.032,2.777
		C64.388,27.892,64.472,27.879,64.56,27.868"/>
	<path fill="#39A935" d="M65.481,38.511c0.033-0.022,0.063-0.046,0.093-0.066c-0.223-1.553-0.508-3.149-0.676-4.83
		c-0.147-1.486-0.013-1.86,0.454-2.651c0.286,1.733,0.564,3.468,0.839,5.143c0.062-0.016,0.123-0.035,0.186-0.052
		c-0.078-1.229-0.156-2.491-0.236-3.757c1.486,0.804,2.829,1.547,4.173,2.246c0.418,0.217,0.622,0.506,0.667,1.007
		c0.188,2.236-0.263,4.372-1.089,6.393c-0.471,1.153-1.069,2.243-1.615,3.367c-0.89-1.333-1.742-2.575-2.581-3.875
		c-1.022-1.58-1.913-3.307-2.042-5.452c-0.045-0.778-0.268-1.619,0.446-2.287C64.573,35.347,65.037,36.957,65.481,38.511
		 M70.041,37.262c-0.224,1.376-0.426,2.634-0.641,3.943C70.06,39.892,70.223,38.635,70.041,37.262"/>
	<path fill="#39A935" d="M40.806,36.995c0.08,0.029,0.163,0.061,0.246,0.088c0.197-2.994,1.259-5.617,3.911-7.224
		c0.328,0.95,0.713,1.974,1.02,2.987c0.138,0.448,0.217,0.942,0.184,1.383c-0.135,1.808-0.785,3.333-1.747,4.615
		c-1.047,1.396-2.159,2.672-3.185,3.947c-0.242,0.299-0.447,0.621-0.689,0.966c-0.09-0.168-0.143-0.264-0.186-0.357
		c-1.373-3.019-2.167-6.246-1.511-9.702c0.101-0.551,0.379-0.796,0.86-0.825c-0.06,2.154-0.115,4.212-0.166,6.173
		c0.071,0.014,0.139,0.03,0.209,0.043c-0.007-2.054,0.229-4.137,0.893-6.187c0.161-0.497,0.447-0.7,0.836-0.677
		C41.249,33.882,41.021,35.466,40.806,36.995 M42.811,33.954c-0.285,1.005-0.57,1.987-0.84,2.945
		c0.06,0.026,0.122,0.055,0.187,0.077c0.272-0.944,0.557-1.912,0.846-2.898C42.937,34.037,42.874,33.997,42.811,33.954"/>
	<path fill="#39A935" d="M66.816,20.185c0.947,0.167,1.581,0.381,2.248,0.377c1.64-0.008,2.552,1.044,3.267,2.367
		c0.225,0.414,0.445,0.83,0.621,1.269c1.466,3.661,1.173,7.393-0.076,10.911c-1.429-0.809-2.924-1.557-4.33-2.479
		c-0.83-0.547-1.558-1.306-2.215-2.105c-0.416-0.503-0.641-1.24-0.352-2.175c0.256,0.468,0.444,0.858,0.668,1.215
		c0.225,0.355,0.481,0.675,0.64,0.899c-0.415-1.474-0.866-3.083-1.332-4.744c0.067-0.032,0.137-0.064,0.206-0.098
		c0.529,0.914,1.052,1.81,1.565,2.691c0.033-0.028,0.068-0.054,0.102-0.082c-0.416-1.273-0.844-2.576-1.345-4.101
		c0.936,0.176,1.611,0.306,2.288,0.433C68.146,23.166,67.539,21.806,66.816,20.185 M71.244,23.552
		c0.299,1.05,0.588,2.081,0.873,3.09c0.087-0.046,0.171-0.091,0.259-0.133c-0.281-1.021-0.571-2.062-0.863-3.126
		C71.422,23.44,71.332,23.496,71.244,23.552"/>
	<path fill="#39A935" d="M41.378,19.075c0.044,0.083,0.097,0.169,0.143,0.25c-2.056,2.356-3.305,5.088-3.642,8.45
		c0.119-0.301,0.182-0.422,0.207-0.563c0.621-3.142,2.219-5.668,4.615-7.642c0.465-0.382,1.089-0.512,1.645-0.756
		c0.07,0.111,0.136,0.219,0.209,0.33c-0.788,1.341-1.55,2.644-2.329,3.975c0.937-0.096,1.848-0.193,2.731-0.281
		c-0.106,1.463-0.292,2.821-0.272,4.162c0.013,1.169-0.355,2.044-1.014,2.738c-0.455,0.466-0.972,0.893-1.543,1.154
		c-1.721,0.8-3.453,1.507-5.151,2.24c-0.309-1.625-0.615-3.424-0.45-5.23c0.278-3.206,1.295-6.12,3.651-8.233
		C40.507,19.371,40.972,19.266,41.378,19.075 M39.274,29.165c0.462-1.361,0.944-2.795,1.401-4.139
		C39.908,25.687,39.365,27.247,39.274,29.165"/>
	<path fill="#39A935" d="M60.437,46.817c0.885-0.443,1.566-1.102,2.202-1.818c0.862-0.968,1.481-2.078,1.909-3.303
		c0.073-0.208,0.086-0.493-0.015-0.663c-0.91-1.525-1.563-3.213-1.724-5.308c-0.387,0.481-0.689,0.858-1.02,1.271
		c-0.188-0.437-0.368-0.84-0.561-1.288c-0.804,1.27-0.87,1.898-0.818,5.77c-0.228-0.934-0.463-1.889-0.715-2.912
		c-0.466,0.455-0.833,0.876-0.663,1.562c0.288,1.165,0.509,2.316,0.673,3.481c-0.466-1.12-0.939-2.271-1.442-3.479
		c-0.507,0.256-0.792,0.651-0.53,1.248c0.442,0.988,0.866,1.955,1.327,2.882C59.492,45.125,59.97,45.954,60.437,46.817"/>
	<path fill="#39A935" d="M46.639,41.103c-0.237-0.98-0.481-1.983-0.74-3.069c-0.622,0.682-0.277,1.499-0.149,2.203
		c0.199,1.083,0.549,2.129,0.747,3.186c-0.51-1.23-1.033-2.493-1.574-3.795c-0.524,0.286-0.436,0.753-0.294,1.302
		c0.479,1.794,1.371,3.323,2.688,4.614c0.22,0.212,0.481,0.393,0.788,0.636c1.028-1.595,2.08-3.208,3.152-4.903
		c0.351-0.554,0.275-1.053-0.257-1.61c-1.167-1.22-1.969-2.703-2.324-4.448c-0.011-0.063-0.074-0.118-0.166-0.261
		c-0.243,0.442-0.459,0.839-0.696,1.274c-0.277-0.439-0.537-0.847-0.848-1.342C46.195,37.029,46.56,39.125,46.639,41.103"/>
	<path fill="#39A935" d="M58.142,53.371c1.574-0.825,2.905-1.869,3.679-3.404c0.069-0.136,0.131-0.312,0.09-0.437
		c-0.252-0.764-0.534-1.537-0.821-2.35c-0.343,0.177-0.723,0.374-1.111,0.577c-0.193-0.5-0.382-0.974-0.574-1.474
		c-1.303,1.214-0.788,2.531-0.765,3.786c-0.202-0.615-0.409-1.238-0.63-1.899c-0.434,0.134-0.52,0.43-0.445,0.779
		c0.175,0.825,0.353,1.63,0.431,2.45c-0.33-0.774-0.677-1.563-1.023-2.37c-0.598,0.207-0.661,0.567-0.426,1.029
		c0.284,0.555,0.548,1.106,0.812,1.65C57.619,52.256,57.869,52.8,58.142,53.371"/>
	<path fill="#39A935" d="M49.599,52.88c0.627-0.967,1.234-1.922,1.875-2.881c0.337-0.51,0.33-0.905-0.238-1.399
		c-0.894-0.775-1.559-1.735-2.007-2.994c-0.311,0.575-0.56,1.03-0.82,1.506c-0.341-0.226-0.676-0.453-1.02-0.68
		c-0.053,0.011-0.104,0.022-0.155,0.033c0.329,0.938,0.65,1.854,0.965,2.747c-0.016,0.008-0.032,0.018-0.044,0.022
		c-0.374-0.576-0.749-1.163-1.245-1.931c-0.013,0.343-0.083,0.553-0.015,0.728c0.384,0.957,0.793,1.886,1.229,2.907
		c-0.599-0.835-1.149-1.598-1.815-2.522c0.015,0.32-0.027,0.521,0.038,0.698C46.95,50.726,48.151,51.917,49.599,52.88"/>
	<path fill="#39A935" d="M53.788,54.952c1.014-0.769,1.965-1.485,2.94-2.218c0.293-0.219,0.271-0.432,0.105-0.72
		c-0.393-0.667-0.731-1.37-1.155-2.174c-0.572,0.504-1.146,1.01-1.701,1.5c-0.471-0.522-0.979-1.093-1.518-1.698
		c-0.316,0.416-0.316,0.416,0.498,1.938c-0.163-0.141-0.341-0.273-0.491-0.424c-0.172-0.164-0.32-0.346-0.49-0.535
		c-0.406,0.268-0.424,0.519-0.22,0.815c0.366,0.526,0.719,1.047,0.954,1.393c-0.399-0.285-0.98-0.7-1.57-1.122
		c-0.373,0.274-0.426,0.329-0.002,0.752C51.981,53.302,52.868,54.09,53.788,54.952"/>
	<path fill="#39A935" d="M62.936,48.284c-0.16-0.668-0.326-1.348-0.501-2.069c-0.421,0.173-0.685,0.426-0.554,0.855
		c0.355,1.139,0.71,2.246,1.054,3.323c0.071,0.007,0.141,0.018,0.208,0.022c0.362-0.32,0.75-0.638,1.098-0.979
		c1.297-1.279,2.21-2.761,2.511-4.52c0.047-0.28-0.037-0.606-0.183-0.85c-0.391-0.646-0.857-1.259-1.327-1.936
		c-0.955,1.542-1.712,2.989-1.529,4.578c-0.108-0.476-0.22-0.962-0.329-1.451C62.805,46.269,63.037,47.266,62.936,48.284"/>
	<path fill="#39A935" d="M43.895,40.924c0.519,1.841,1.372,3.368,2.604,4.686c0.107,0.118,0.128,0.348,0.107,0.504
		c-0.192,1.279-0.953,2.264-1.576,3.282c-1.669-1.361-3.095-4.123-3.049-6.096c0.005-0.277,0.26-0.519,0.409-0.794
		c0.369,1.358,0.694,2.575,1.016,3.755c-0.067-1.15-0.165-2.305-0.344-3.497C42.94,41.983,43.253,41.45,43.895,40.924
		 M44.461,45.744c-0.124-0.582-0.25-1.173-0.379-1.767c-0.063,0.006-0.124,0.008-0.182,0.012c0.126,0.604,0.252,1.203,0.377,1.785
		C44.336,45.766,44.399,45.754,44.461,45.744"/>
	<path fill="#39A935" d="M63.437,17.392c-1.932-2.33-2.848-6.367-6.429-6.561c-0.631,4.923,5.106,11.706,9.869,12.129
		c-1.216-3.267-2.219-6.938-5.037-9.331C62.383,14.912,62.913,16.166,63.437,17.392"/>
	<path fill="#39A935" d="M55.513,10.75c-3.653-0.233-4.973,3.697-7.166,5.801c0.644-1.164,1.311-2.347,1.989-3.555
		c-3.052,2.028-4.438,5.576-6.009,8.642C48.472,22.382,54.973,16.343,55.513,10.75"/>
	<path fill="#39A935" d="M52.501,10.139c-2.09-0.359-3.608,0.47-5.027,1.702c-1.345,1.173-2.75,2.175-4.176,3.048
		c1.214-1.155,2.452-2.345,3.723-3.56c-0.059-0.092-0.106-0.18-0.159-0.267c-3.466,1.292-6.066,3.779-8.104,7.207
		c1.978-0.183,3.784-0.31,5.579-0.551c0.433-0.056,0.941-0.366,1.177-0.773C47.172,14.03,49.269,11.518,52.501,10.139"/>
	<path fill="#39A935" d="M65.352,12.378c1.113,1.332,2.202,2.634,3.269,3.911c-0.013,0.029-0.027,0.057-0.041,0.085
		c-0.762-0.648-1.545-1.281-2.3-1.979c-0.539-0.495-1.051-1.043-1.545-1.636c-1.196-1.448-2.652-2.294-4.567-2.217
		c0.252,0.194,0.429,0.352,0.61,0.467c2.08,1.35,3.723,3.236,4.7,5.675c0.686,1.716,1.714,2.561,3.249,2.774
		c1.294,0.178,2.582,0.384,3.978,0.595c-1.558-3.528-3.892-6.261-7.178-7.959C65.47,12.187,65.409,12.282,65.352,12.378"/>
	<path fill="#39A935" d="M55.222,8.753c0.74,0.042,1.415,0.082,2.178,0.122c0.586-2.458,0.649-5.065,0.464-7.767
		C57.834,0.71,57.143,0.448,56.613,0c-0.098,1.799-0.165,3.142-0.239,4.448c-0.03,0.006-0.062,0.017-0.098,0.018
		c-0.165-1.367-0.33-2.767-0.5-4.193c-0.054,0.02-0.109,0.04-0.166,0.063C55.473,3.256,55.347,6.051,55.222,8.753"/>
</g>
</svg>
