<?xml version="1.0" encoding="utf-8"?>
<!-- Generator: Adobe Illustrator 16.0.0, SVG Export Plug-In . SVG Version: 6.00 Build 0)  -->
<!DOCTYPE svg PUBLIC "-//W3C//DTD SVG 1.1//EN" "http://www.w3.org/Graphics/SVG/1.1/DTD/svg11.dtd">
<svg version="1.1" id="Capa_1" xmlns="http://www.w3.org/2000/svg" xmlns:xlink="http://www.w3.org/1999/xlink" x="0px" y="0px"
	 width="185.323px" height="38.115px" viewBox="0 0 185.323 38.115" enable-background="new 0 0 185.323 38.115"
	 xml:space="preserve">
<g>
	<path fill="#39A935" d="M103.084,17.42c0.379,0.758,0.479,1.409,0.136,2.213c-0.657,1.534-1.53,2.886-2.604,4.087
		c-0.075,0.086-0.14,0.179-0.207,0.268c0.067,0.043,0.136,0.086,0.2,0.129c1.081-1.326,2.211-2.703,3.413-4.173
		c0.336,0.301,0.479,0.673,0.121,1.295c-1.952,3.321-4.879,4.988-8.022,5.961c-0.214-1.846-0.456-3.701-0.646-5.621
		c-0.375-3.791,1.217-7.313,4.161-10.836c0.146-0.173,0.343-0.354,0.54-0.435c1.285-0.529,2.608-1.046,4.139-1.654
		c-0.873,1.9-1.695,3.724-2.503,5.469c-0.695,1.498-1.382,2.939-1.919,4.376c0.862-1.484,1.754-3.021,2.684-4.62
		c0.494,3.043-0.915,5.603-2.379,8.035c0.343-0.422,0.715-0.83,1.035-1.276c0.35-0.486,0.665-0.998,0.965-1.523
		C102.498,18.596,102.763,18.049,103.084,17.42 M97.96,15.185c-0.069-0.018-0.138-0.04-0.207-0.061
		c-0.422,1.062-0.831,2.095-1.233,3.104c0.061,0.021,0.123,0.039,0.184,0.057C97.113,17.277,97.531,16.244,97.96,15.185"/>
	<path fill="#39A935" d="M94.717,18.832c-0.02,0.73-0.002,1.47-0.075,2.196c-0.029,0.278-0.211,0.594-0.41,0.812
		c-0.381,0.422-0.817,0.787-1.171,1.266c0.536-0.289,1.082-0.579,1.632-0.876c0.061,0.025,0.12,0.05,0.179,0.079
		c-0.13,0.278-0.186,0.661-0.402,0.814c-1.049,0.744-2.108,1.406-3.125,2.11c1.148-0.483,2.328-0.983,3.543-1.498
		c0.288,0.618,0.293,0.754-0.361,1.055c-1.298,0.597-2.588,1.108-3.826,1.63c-0.098,0.043-0.206,0.068-0.29,0.15
		c1.639-0.057,3.175-0.646,4.75-1.391c0.17,0.521,0.116,0.848-0.396,1.19c-1.534,1.02-3.181,1.355-4.876,1.395
		c-0.978,0.021-1.941,0.004-2.96,0.007c-0.084-1.544-0.286-3.153-0.213-4.787c0.045-1.009,0.549-2.014,0.838-3.062
		c0.131-0.468,0.435-0.5,0.821-0.497c1.352,0.012,2.734,0.051,4.148-0.039C93.248,19.34,93.984,19.025,94.717,18.832 M87.115,23.363
		c0.063,0.014,0.127,0.028,0.189,0.043c0.146-0.712,0.297-1.434,0.451-2.167c-0.056-0.015-0.111-0.025-0.165-0.039
		C87.43,21.932,87.271,22.655,87.115,23.363"/>
	<path fill="#39A935" d="M86.22,25.751c0.037,0.926,0.077,1.877,0.114,2.778c0.858-0.062,1.833-0.129,2.835-0.2
		c-0.043,1.029-0.785,1.38-1.403,1.776c-0.717,0.458-1.472,0.837-2.155,1.31c0.975-0.38,1.976-0.772,2.999-1.17
		c0.04,0.547-0.14,0.94-0.721,1.145c-0.951,0.332-1.852,0.715-2.726,1.137c1.033-0.222,2.093-0.454,3.198-0.693
		c0.079,0.34-0.082,0.579-0.417,0.754c-1.119,0.587-2.349,0.669-3.594,0.608c-0.705-0.032-1.4-0.068-2.129-0.104
		c-0.143-1.752-0.842-3.644-0.181-5.5c0.15-0.425,0.367-0.654,0.809-0.775C83.922,26.524,84.997,26.144,86.22,25.751"/>
	<path fill="#39A935" d="M91.273,17.309c1.298-0.265,2.628-0.537,3.989-0.815c-0.023,0.897-0.444,1.491-1.393,1.806
		c-1.407,0.461-2.768,0.526-4.121,0.472c-1.06-0.043-2.104-0.043-3.173-0.061c0.195-1.405,0.66-2.864,1.364-4.291
		c0.848-1.713,2.024-3.236,3.667-4.355c0.29-0.197,0.747-0.293,1.04-0.195c1.833,0.624,3.759,0.976,5.941,0.746
		c-1.373,2.614-3.488,3.705-5.607,4.681c0.524-0.147,1.059-0.275,1.588-0.454c0.542-0.186,1.08-0.426,1.675-0.662
		c-0.188,0.744-0.502,1.313-1.193,1.577c-1.292,0.5-2.549,0.987-3.771,1.458C91.279,17.248,91.275,17.28,91.273,17.309
		 M89.689,12.564c0.045,0.061,0.09,0.122,0.134,0.183c0.572-0.558,1.153-1.126,1.745-1.706c-0.042-0.054-0.083-0.111-0.122-0.164
		C90.85,11.448,90.264,12.013,89.689,12.564"/>
	<path fill="#39A935" d="M82.499,18.607c1.244-0.69,2.531-1.402,3.854-2.135c0.027,0.858-0.635,1.244-1.146,1.698
		c-1.413,1.255-3.04,1.773-4.657,2.12c-1.331,0.287-2.632,0.529-4.016,0.805c0.361-1.037,0.667-2.088,1.09-3.096
		c0.742-1.77,1.788-3.379,3.297-4.652c0.338-0.283,0.646-0.336,1.041-0.211c1.27,0.4,2.566,0.772,3.991,1.198
		c-0.837,0.737-1.67,1.473-2.481,2.188c0.026,0.05,0.055,0.101,0.082,0.147c1.21-0.869,2.464-1.774,3.717-2.675
		c-0.2,0.783-0.349,1.098-1.364,1.931c-1.15,0.94-2.319,1.755-3.424,2.582C82.488,18.539,82.494,18.571,82.499,18.607
		 M80.441,14.996c-0.966,0.74-1.647,1.623-2.053,2.85C79.07,16.898,79.724,15.99,80.441,14.996"/>
	<path fill="#39A935" d="M98.781,33.002c0.814-1.083,1.659-2.21,2.544-3.386c0.257,0.229,0.308,0.532,0.1,0.94
		c-0.863,1.688-2.011,3.129-3.291,4.401c0.05,0.036,0.104,0.068,0.157,0.104c1.188-1.251,2.432-2.563,3.734-3.94
		c0.279,0.318,0.301,0.644,0.021,1.048c-1.742,2.557-4.242,4.069-6.971,5.092c-0.085,0.032-0.177,0.058-0.338,0.107
		c0.063-0.365,0.136-0.693,0.172-1.029c0.156-1.431,0.257-2.915,0.474-4.435c0.2-1.395,0.744-2.746,1.784-3.954
		c0.254-0.294,0.608-0.551,0.973-0.744c0.822-0.439,1.699-0.837,2.492-1.223c0.649,2.646-0.321,4.938-2.06,6.919
		C98.642,32.938,98.713,32.97,98.781,33.002 M99.425,29.867c-0.064-0.014-0.129-0.028-0.197-0.043
		c-0.433,0.794-0.857,1.57-1.276,2.328c0.056,0.025,0.111,0.046,0.166,0.067C98.545,31.455,98.978,30.667,99.425,29.867"/>
	<path fill="#39A935" d="M93.062,6.385c-1.457,0.558-2.68,1.026-3.937,1.507c0.499,0.342,0.999,0.682,1.689,1.153
		c-1.261,0.637-2.335,1.182-3.385,1.713c0.004,0.038,0.009,0.077,0.013,0.114c0.867-0.229,1.749-0.461,2.646-0.699
		c0.021,0.063,0.044,0.125,0.068,0.188c-1.323,0.744-2.603,1.462-3.778,2.121c0.238-0.04,0.597-0.079,0.957-0.161
		c0.361-0.082,0.721-0.208,1.171-0.34c-0.402,0.762-0.999,1.08-1.571,1.134c-0.906,0.089-1.829,0.107-2.686-0.068
		c-1.446-0.3-2.841-0.765-4.23-1.151c1.409-2.962,3.545-5.465,6.733-6.829c0.383-0.165,0.778-0.284,1.175-0.402
		c1.268-0.379,2.489-0.465,3.502,0.558C91.84,5.638,92.37,5.901,93.062,6.385 M88.216,5.726c-0.021-0.089-0.042-0.181-0.063-0.272
		c-0.844,0.479-1.67,0.948-2.479,1.407c0.027,0.08,0.052,0.161,0.079,0.243C86.558,6.653,87.378,6.194,88.216,5.726"/>
	<path fill="#39A935" d="M109.563,21.507c0.136,0.371,0.357,0.726,0.379,1.115c0.15,2.778-1.029,5.221-2.847,7.388
		c-1.022,1.226-2.331,2.152-3.532,2.971c-0.601-1.513-1.237-3.028-1.81-4.595c-0.193-0.519-0.25-1.104-0.243-1.677
		c0.021-0.841,0.336-1.612,1.073-2.331c0.844-0.822,1.573-1.781,2.417-2.757c0.493,0.604,1.001,1.229,1.523,1.873
		c0.343-1.312,0.679-2.596,1.022-3.919c0.114-0.024,0.222-0.05,0.336-0.075c0.193,0.497,0.501,0.966,0.551,1.491
		c0.265,2.718-0.314,5.281-1.881,7.62c-0.071,0.104-0.107,0.218-0.222,0.479c1.881-2.3,2.804-4.774,2.989-7.517
		C109.398,21.553,109.484,21.532,109.563,21.507 M104.601,29.087c1.137-1.248,1.767-2.557,1.702-3.443
		C105.752,26.763,105.158,27.954,104.601,29.087"/>
	<path fill="#39A935" d="M80.473,26.906c-0.275-0.826-0.29-1.659-0.239-2.499c0.066-1.137,0.372-2.214,0.867-3.239
		c0.084-0.176,0.252-0.361,0.418-0.404c1.514-0.383,2.972-1.026,4.372-2.228c-0.058,0.54-0.104,0.962-0.154,1.423
		c0.388-0.153,0.751-0.293,1.148-0.45c-0.29,1.287-0.639,1.72-3.079,4.094c0.724-0.439,1.463-0.887,2.255-1.366
		c0.007,0.572-0.025,1.063-0.556,1.384c-0.905,0.544-1.757,1.123-2.582,1.745c0.985-0.407,1.995-0.826,3.057-1.266
		c0.157,0.472,0.089,0.897-0.447,1.105c-0.887,0.339-1.752,0.676-2.614,0.965C82.111,26.441,81.299,26.66,80.473,26.906"/>
	<path fill="#39A935" d="M92.601,31.93c0.758-0.462,1.532-0.934,2.37-1.448c-0.039,0.812-0.761,1.104-1.278,1.463
		c-0.797,0.55-1.666,0.982-2.444,1.516c1.08-0.447,2.192-0.908,3.336-1.38c0.148,0.504-0.197,0.739-0.626,0.99
		c-1.414,0.818-2.918,1.216-4.539,1.198c-0.269-0.004-0.542-0.055-0.885-0.094c0.354-1.63,0.703-3.286,1.089-5.006
		c0.127-0.564,0.484-0.826,1.162-0.844c1.482-0.032,2.902-0.454,4.208-1.319c0.047-0.032,0.12-0.028,0.265-0.061
		c-0.125,0.429-0.236,0.808-0.359,1.226c0.445-0.1,0.86-0.192,1.362-0.307C95.409,29.673,93.879,30.75,92.601,31.93"/>
	<path fill="#39A935" d="M77.825,32.406c-0.465-1.491-0.642-2.968-0.169-4.402c0.041-0.128,0.111-0.275,0.214-0.328
		c0.631-0.318,1.289-0.623,1.97-0.948c0.104,0.322,0.218,0.68,0.334,1.048c0.431-0.189,0.842-0.368,1.273-0.558
		c0.055,1.563-1.083,2.063-1.879,2.828c0.508-0.257,1.025-0.515,1.572-0.79c0.186,0.354,0.057,0.59-0.208,0.762
		c-0.62,0.404-1.231,0.794-1.791,1.255c0.688-0.275,1.393-0.551,2.109-0.837c0.243,0.501,0.059,0.766-0.375,0.905
		c-0.52,0.168-1.028,0.347-1.529,0.521C78.843,32.038,78.35,32.219,77.825,32.406"/>
	<path fill="#39A935" d="M83.439,37.412c0.211-0.99,0.427-1.96,0.627-2.957c0.105-0.525,0.357-0.769,1.017-0.723
		c1.037,0.075,2.047-0.107,3.107-0.611c-0.163,0.551-0.292,0.987-0.425,1.444c0.352,0.072,0.703,0.14,1.056,0.211
		c0.025,0.04,0.05,0.079,0.075,0.118c-0.787,0.379-1.555,0.748-2.306,1.108c0.003,0.015,0.007,0.029,0.013,0.04
		c0.59-0.126,1.189-0.258,1.974-0.426c-0.206,0.222-0.29,0.396-0.442,0.461c-0.834,0.357-1.666,0.68-2.571,1.044
		c0.891-0.146,1.708-0.278,2.696-0.439c-0.208,0.189-0.308,0.343-0.459,0.411C86.425,37.719,84.939,37.712,83.439,37.412"/>
	<path fill="#39A935" d="M79.549,36.095c-0.153-1.108-0.298-2.145-0.45-3.207c-0.045-0.318,0.1-0.437,0.382-0.512
		c0.658-0.171,1.307-0.396,2.07-0.633c0.043,0.669,0.084,1.338,0.125,1.988c0.615-0.032,1.287-0.071,1.997-0.11
		c-0.061,0.454-0.061,0.454-1.513,0.894c0.189,0.015,0.381,0.043,0.568,0.043c0.209,0.004,0.415-0.018,0.638-0.028
		c0.086,0.418-0.059,0.586-0.372,0.644c-0.554,0.1-1.098,0.203-1.457,0.271c0.425,0.071,1.044,0.176,1.671,0.279
		c0.063,0.403,0.063,0.468-0.465,0.468C81.696,36.192,80.657,36.131,79.549,36.095"/>
	<path fill="#39A935" d="M78.006,26.262c0.517-0.314,1.041-0.633,1.599-0.973c0.155,0.368,0.161,0.69-0.186,0.876
		c-0.93,0.486-1.84,0.955-2.721,1.409c-0.048-0.039-0.097-0.075-0.145-0.114c-0.025-0.426-0.07-0.861-0.073-1.291
		c-0.011-1.602,0.343-3.09,1.25-4.369c0.145-0.204,0.4-0.354,0.64-0.415c0.646-0.157,1.317-0.25,2.029-0.379
		c-0.365,1.552-0.794,2.925-1.896,3.797c0.363-0.229,0.733-0.461,1.107-0.697C79.34,25.093,78.576,25.569,78.006,26.262"/>
	<path fill="#39A935" d="M94.417,33.525c0.075,0.726-0.063,1.251-0.624,1.662c-0.853,0.63-1.632,1.288-2.387,1.96
		c0.931-0.533,1.89-1.087,2.964-1.702c-0.079,0.265-0.069,0.572-0.239,0.747c-1.196,1.255-3.801,2.085-5.686,1.896
		c0.247-1.022,0.386-2.106,1.062-3.021c0.084-0.111,0.24-0.239,0.381-0.247C91.472,34.765,92.951,34.347,94.417,33.525
		 M91.07,36.167c0.032,0.046,0.064,0.093,0.095,0.136c0.442-0.286,0.891-0.579,1.345-0.876c-0.034-0.039-0.07-0.079-0.105-0.122
		C91.953,35.595,91.508,35.884,91.07,36.167"/>
	<path fill="#39A935" d="M96.898,6.75c2.651-0.247,5.729-2.188,8.074-0.083c-2.668,3.453-10.452,4.102-13.674,1.405
		c2.787-1.274,5.692-2.934,8.931-2.669C99.096,5.863,97.985,6.312,96.898,6.75"/>
	<path fill="#39A935" d="M105.952,7.545c2.417,2.126,0.794,5.391,0.851,8.062c0.322-1.123,0.644-2.274,0.973-3.447
		c0.637,3.158-0.708,6.226-1.638,9.107C103.099,19.154,102.813,11.359,105.952,7.545"/>
	<path fill="#39A935" d="M108.205,9.039c1.522,1.076,1.952,2.535,2.066,4.184c0.107,1.566,0.357,3.061,0.701,4.491
		c-0.036-1.473-0.064-2.982-0.101-4.527c0.093-0.021,0.179-0.046,0.265-0.068c1.352,2.957,1.423,6.122,0.558,9.518
		c-1.115-1.344-2.159-2.545-3.125-3.811c-0.236-0.304-0.357-0.812-0.25-1.212C109.099,14.77,109.356,11.906,108.205,9.039"/>
	<path fill="#39A935" d="M98.824,2.443c-1.52,0.136-3.006,0.268-4.461,0.399c-0.009,0.027-0.02,0.052-0.029,0.079
		c0.876,0.069,1.757,0.164,2.661,0.2c0.644,0.027,1.303,0.003,1.976-0.059c1.645-0.156,3.076,0.224,4.221,1.462
		c-0.279-0.036-0.486-0.048-0.672-0.089c-2.133-0.454-4.325-0.302-6.449,0.606c-1.494,0.64-2.658,0.527-3.744-0.295
		c-0.917-0.693-1.845-1.366-2.842-2.103c3.161-1.225,6.311-1.473,9.407-0.486C98.87,2.251,98.849,2.348,98.824,2.443"/>
	<path fill="#39A935" d="M107.375,6.487c-0.486-0.434-0.93-0.829-1.43-1.278c1.165-1.893,2.746-3.552,4.541-5.117
		c0.265-0.229,0.857,0.038,1.466,0.088c-1.059,1.18-1.853,2.056-2.617,2.914c0.014,0.023,0.028,0.048,0.05,0.071
		c0.951-0.747,1.924-1.514,2.918-2.295c0.021,0.046,0.043,0.093,0.064,0.141C110.636,2.913,108.977,4.728,107.375,6.487"/>
</g>
<path fill="#95C11F" d="M6.201,25.846c8.742,6.092,43.189-15.255,49.231-7.822l5.309,3.955c0,0,1.837-8.313-8.279-11.093
	c-6.382-1.756-21.471,2.076-32.423,6.553c-9.481,3.876-12.243,3.008-12.745,2.913c-0.814-0.153-1.505-0.501-2.42-1.261
	c-0.733-0.979-2.368,0.007-3.762-2.429c-0.296-0.278-0.6-0.566-0.917-0.863C0.195,15.8-1.679,20.356,6.201,25.846 M53.655,13.338
	c0.644,0.245,1.28,0.521,1.871,0.83c-1.037,0.333-2.699,0.639-2.699,0.639s-0.03-0.317-0.093-0.699
	C52.647,13.583,53.158,13.15,53.655,13.338 M58.075,16.219c-0.187-0.132-0.465-0.209-0.849-0.173
	c-0.371,0.034-0.731,0.047-1.066,0.044c-0.761-0.004-1.118-0.941-0.566-1.463c0.1-0.096,0.193-0.187,0.278-0.271
	C56.814,14.888,57.608,15.508,58.075,16.219 M57.369,17.597c0.632,0.066,1.003-0.368,1.008-0.797
	c1.02,2.453,1.116,3.019-0.247,2.333C56.747,18.437,56.121,17.465,57.369,17.597 M44.971,14.03
	c-0.773-0.529-0.436-1.751,0.496-1.841c1.653-0.158,3.109-0.203,3.982-0.035c0.727,0.139,1.659,0.361,2.647,0.659
	c-0.034,0.02-0.068,0.05-0.105,0.093c-0.593,0.714-1.568,1.073-1.568,1.073s-2.307-0.218-4.236,0.292
	C45.724,14.391,45.323,14.271,44.971,14.03 M37.417,15.898c-1.241-0.39-1.176-2.202,0.056-2.623c0.283-0.096,0.5-0.167,0.574-0.187
	c1.189-0.293,1.774-0.128,4.093-0.479c-1.102,1.32-3.247,3.726-4.696,3.296C37.434,15.902,37.426,15.899,37.417,15.898
	 M17.539,20.069c5.502-1.704,12.857-4.392,16.686-5.686c-0.49,1.843-3.913,4.196-5.792,4.293c-2.049,0.109-7.209,2.648-9.45,3.35
	C17.041,22.634,16.517,21.504,17.539,20.069 M14.252,22.886c-0.848,0.428-1.507,0.554-1.354,0.157
	c0.35-0.898-0.129-1.026,0.154-1.733c0.184-0.041,0.375-0.085,0.574-0.133C14.695,20.917,15.234,22.392,14.252,22.886 M5.817,22.631
	c0.733-0.456,0.343-0.905-0.391-1.655c1.41,0.594,3.59,1.051,6.771,0.507c0.096-0.017,0.203-0.039,0.306-0.058
	c-1.575,1.421-4.887,4.356-4.228,3.285c0.196-0.319,0.442-0.652,0.706-0.976c0.489-0.601-0.083-1.473-0.833-1.274
	C6.448,22.912,4.79,23.27,5.817,22.631"/>
<path fill="#95C11F" d="M179.122,25.846c7.88-5.49,6.007-10.046,6.007-10.046c-0.316,0.297-0.621,0.584-0.917,0.863
	c-1.394,2.436-3.028,1.449-3.762,2.429c-0.915,0.76-1.606,1.107-2.42,1.261c-0.503,0.095-3.265,0.963-12.746-2.913
	c-10.951-4.477-26.041-8.309-32.423-6.553c-10.116,2.78-8.279,11.093-8.279,11.093l5.31-3.955
	C135.933,10.591,170.38,31.938,179.122,25.846 M131.669,13.338c0.497-0.188,1.008,0.246,0.92,0.77
	c-0.062,0.382-0.092,0.699-0.092,0.699s-1.663-0.306-2.699-0.639C130.389,13.859,131.024,13.583,131.669,13.338 M127.249,16.219
	c0.467-0.71,1.261-1.331,2.203-1.864c0.084,0.085,0.178,0.176,0.277,0.271c0.552,0.522,0.195,1.459-0.566,1.463
	c-0.334,0.002-0.694-0.01-1.065-0.044C127.714,16.009,127.436,16.087,127.249,16.219 M127.954,17.597
	c1.249-0.131,0.622,0.84-0.761,1.536c-1.363,0.686-1.267,0.12-0.246-2.333C126.952,17.229,127.323,17.663,127.954,17.597
	 M140.353,14.03c-0.353,0.241-0.753,0.36-1.216,0.24c-1.93-0.51-4.235-0.292-4.235-0.292s-0.977-0.358-1.569-1.073
	c-0.036-0.043-0.07-0.073-0.104-0.093c0.988-0.298,1.92-0.52,2.646-0.659c0.873-0.167,2.33-0.123,3.982,0.035
	C140.788,12.279,141.126,13.501,140.353,14.03 M147.907,15.898c-0.01,0.001-0.017,0.004-0.026,0.007
	c-1.449,0.429-3.595-1.976-4.696-3.296c2.319,0.351,2.903,0.186,4.093,0.479c0.074,0.019,0.291,0.091,0.573,0.187
	C149.083,13.696,149.147,15.508,147.907,15.898 M167.785,20.069c1.021,1.436,0.498,2.565-1.444,1.958
	c-2.241-0.702-7.4-3.241-9.449-3.35c-1.879-0.097-5.303-2.45-5.792-4.293C154.929,15.677,162.283,18.365,167.785,20.069
	 M171.071,22.886c-0.981-0.494-0.443-1.97,0.625-1.709c0.198,0.048,0.39,0.092,0.573,0.133c0.283,0.707-0.194,0.835,0.154,1.733
	C172.578,23.44,171.919,23.314,171.071,22.886 M179.506,22.631c1.028,0.639-0.63,0.28-2.331-0.171
	c-0.749-0.198-1.322,0.674-0.833,1.274c0.265,0.323,0.51,0.656,0.706,0.976c0.66,1.071-2.652-1.864-4.228-3.285
	c0.104,0.019,0.21,0.041,0.306,0.058c3.181,0.544,5.361,0.087,6.771-0.507C179.163,21.726,178.773,22.175,179.506,22.631"/>
</svg>
