<?xml version="1.0" standalone="no"?>
<!DOCTYPE svg PUBLIC "-//W3C//DTD SVG 20010904//EN"
 "http://www.w3.org/TR/2001/REC-SVG-20010904/DTD/svg10.dtd">
<svg version="1.0" xmlns="http://www.w3.org/2000/svg"
 width="600.000000pt" height="600.000000pt" viewBox="0 0 600.000000 600.000000"
 preserveAspectRatio="xMidYMid meet">
<metadata>
Created by potrace 1.14, written by Peter Selinger 2001-2017
</metadata>
<g transform="translate(0.000000,600.000000) scale(0.100000,-0.100000)"
fill="#000000" stroke="none">
<path d="M3807 5544 c-1 -1 -36 -4 -77 -8 -180 -15 -367 -77 -500 -167 -75
-50 -101 -81 -110 -128 l-7 -40 96 51 c260 137 286 149 256 123 -26 -22 -194
-150 -293 -222 -43 -32 -70 -88 -75 -157 -2 -31 -2 -56 0 -56 2 0 27 12 56 26
133 68 338 119 505 127 75 3 85 6 113 33 43 41 93 150 128 282 17 62 31 116
31 121 0 7 -115 21 -123 15z m-247 -252 c0 -9 -143 -96 -176 -108 -35 -13 1
16 83 67 80 49 93 55 93 41z"/>
<path d="M2970 5435 c-364 -124 -665 -325 -874 -584 -69 -85 -82 -114 -71
-153 16 -51 25 -51 75 -1 312 316 490 482 490 460 0 -1 -43 -47 -96 -102 -111
-115 -200 -224 -277 -339 -104 -154 -126 -215 -93 -259 12 -16 31 3 196 208
100 124 186 222 191 219 12 -7 6 -17 -52 -84 -96 -113 -175 -248 -218 -378
-19 -54 -23 -74 -38 -157 -12 -74 -4 -297 12 -313 6 -6 185 70 309 130 112 55
158 91 226 177 54 68 135 205 128 214 -2 2 2 10 8 18 25 30 66 184 89 329 3
19 7 46 10 60 2 14 7 45 10 70 3 25 10 77 15 115 5 39 12 90 15 115 4 25 8 61
11 80 5 36 17 111 19 120 8 29 17 82 14 84 -2 2 -47 -11 -99 -29z m-456 -820
c-47 -80 -93 -145 -100 -145 -8 0 23 60 73 143 98 162 106 173 111 158 2 -5
-36 -76 -84 -156z"/>
<path d="M4268 5455 c-2 -2 -31 -6 -65 -9 -90 -9 -183 -41 -223 -75 l-35 -31
35 5 c19 2 58 7 85 9 28 3 59 7 70 10 50 10 149 15 125 7 -217 -78 -299 -112
-323 -136 -15 -15 -26 -29 -24 -32 4 -4 52 3 143 21 64 13 98 16 89 8 -6 -4
-72 -34 -148 -67 -76 -32 -136 -63 -134 -69 2 -6 32 -18 66 -27 34 -9 64 -19
67 -22 4 -3 -7 -47 -24 -96 -17 -50 -26 -91 -21 -91 5 0 26 7 46 15 88 37 158
48 306 50 190 2 185 -3 234 191 19 76 36 146 38 154 2 8 10 44 20 79 9 35 14
65 11 68 -7 7 -74 21 -137 28 -61 7 -197 14 -201 10z"/>
<path d="M4634 5237 c-15 -40 -1 -50 101 -73 55 -12 98 -23 95 -24 -9 -3 -44
-9 -90 -15 -93 -12 -111 -18 -126 -41 -28 -42 -15 -59 44 -60 28 -1 62 -2 75
-4 21 -2 21 -2 -3 -10 -14 -5 -51 -16 -83 -26 -54 -16 -87 -42 -87 -70 0 -8
37 -11 135 -9 97 2 135 0 136 -8 0 -7 2 -65 3 -130 2 -64 6 -120 9 -123 7 -7
308 75 326 89 10 9 12 28 7 82 -4 38 -9 95 -12 125 -2 30 -6 66 -9 80 -2 14
-7 61 -10 105 -4 44 -11 84 -15 88 -4 5 -34 10 -66 13 -33 2 -84 6 -114 9 -30
2 -112 8 -182 11 -110 5 -129 4 -134 -9z"/>
<path d="M3707 5024 c-1 -1 -40 -4 -87 -8 -146 -11 -292 -51 -426 -119 -49
-25 -97 -53 -106 -64 -24 -26 -35 -83 -17 -83 13 0 266 92 362 131 79 33 64
16 -31 -34 -48 -25 -123 -67 -167 -94 -45 -26 -94 -55 -109 -63 -44 -23 -104
-88 -111 -121 -4 -17 -5 -32 -3 -34 1 -2 32 14 68 34 91 53 203 115 215 120 9
4 -20 -22 -80 -70 -145 -119 -250 -222 -321 -316 -41 -55 -76 -114 -70 -120 1
-2 39 4 85 14 45 9 84 14 86 11 3 -3 -6 -37 -20 -75 -14 -39 -25 -73 -25 -77
0 -14 28 -4 109 38 161 83 273 111 476 120 129 6 158 21 188 96 18 45 181 689
176 694 -4 4 -188 23 -192 20z"/>
<path d="M1716 4826 c-160 -108 -254 -184 -346 -283 -133 -143 -240 -297 -314
-453 -77 -163 -113 -298 -122 -462 -6 -95 -4 -115 16 -177 18 -54 27 -69 42
-68 10 1 18 4 19 7 0 3 2 14 4 25 2 11 7 43 10 70 24 190 128 475 238 650 37
60 166 235 173 235 7 0 -9 -27 -61 -105 -93 -138 -184 -351 -210 -490 -2 -11
-11 -60 -21 -110 -10 -56 -17 -147 -17 -240 -1 -149 -1 -151 33 -237 34 -86
47 -100 76 -80 7 4 44 117 84 252 40 135 75 250 79 256 3 7 49 -45 104 -117
l97 -128 92 102 c50 56 144 156 208 222 180 184 202 232 196 425 -3 114 -4
117 -79 330 -117 336 -157 444 -166 453 -5 5 -65 -30 -135 -77z m-53 -488 c-6
-7 -27 -44 -47 -83 -123 -233 -155 -290 -164 -293 -16 -5 5 74 42 152 29 62
90 154 150 223 20 23 37 24 19 1z"/>
<path d="M4177 4844 c-161 -25 -267 -81 -267 -139 0 -24 3 -26 28 -21 33 8 55
12 112 21 25 4 54 9 65 11 140 27 187 35 191 31 5 -5 -172 -73 -291 -113 -91
-29 -130 -63 -141 -119 -3 -20 -4 -38 -1 -41 4 -5 157 46 335 110 23 8 42 13
42 11 0 -2 -39 -25 -87 -51 -307 -165 -343 -194 -371 -297 l-11 -39 195 7 194
6 0 -38 c3 -337 3 -333 22 -333 9 0 37 6 60 14 41 13 145 44 178 52 8 2 49 13
90 24 41 12 86 24 100 26 42 9 90 35 110 62 24 30 57 138 65 212 7 60 7 183 1
215 -2 11 -7 56 -11 100 -4 44 -8 82 -10 85 -2 3 -6 39 -10 80 -9 110 -9 110
-63 111 -26 1 -56 3 -67 4 -169 21 -362 25 -458 9z"/>
<path d="M5115 4639 c-225 -71 -255 -87 -255 -133 1 -51 10 -51 149 -3 72 26
131 45 131 43 0 -6 -189 -126 -199 -126 -16 0 -71 -61 -71 -79 0 -44 8 -50 48
-31 20 10 60 28 87 40 28 12 53 24 58 27 4 2 7 2 7 0 0 -3 -30 -29 -67 -58
-82 -64 -107 -91 -137 -149 -21 -40 -45 -150 -33 -150 2 0 21 7 41 15 20 9 59
24 85 35 l49 19 18 -70 c10 -38 21 -69 25 -69 8 0 126 49 216 90 81 37 89 50
118 180 15 73 13 311 -4 370 -6 19 -13 50 -16 69 -7 38 -13 52 -23 50 -4 -1
-106 -32 -227 -70z"/>
<path d="M3549 4136 c-2 -2 -35 -7 -73 -10 -167 -15 -399 -100 -489 -178 -35
-29 -39 -38 -39 -81 -1 -26 1 -49 4 -52 2 -2 44 11 94 31 134 53 300 101 389
113 119 16 168 19 158 12 -4 -4 -84 -36 -178 -70 -349 -130 -431 -165 -446
-192 -8 -17 4 -99 15 -99 6 0 372 141 405 156 51 23 48 10 -6 -23 -26 -17
-111 -69 -188 -117 -178 -110 -171 -104 -195 -161 -16 -37 -18 -50 -9 -56 7
-4 60 16 123 48 l111 55 -94 -95 c-99 -100 -117 -124 -126 -178 -10 -54 -19
-216 -16 -280 1 -15 15 -13 109 14 l107 31 270 -3 c149 -1 309 -3 357 -4 109
-2 113 2 164 138 20 55 43 118 51 140 20 53 40 130 48 185 7 44 7 403 1 505
-2 28 -4 75 -5 106 l-1 56 -32 0 c-18 0 -139 2 -269 6 -130 4 -238 5 -240 3z
m454 -756 c-19 -74 -37 -137 -39 -139 -14 -14 -13 16 1 71 9 34 19 74 21 88
11 62 36 132 44 124 4 -5 -8 -70 -27 -144z"/>
<path d="M2700 4051 c-361 -120 -640 -298 -838 -535 -81 -97 -154 -199 -171
-242 -14 -36 -6 -91 17 -117 18 -20 22 -17 147 129 28 32 57 65 65 74 8 9 44
49 80 90 36 41 67 77 70 80 3 3 36 40 74 83 48 55 72 75 79 68 10 -10 -21 -51
-74 -101 -29 -28 -120 -149 -171 -227 -87 -136 -83 -129 -127 -218 -42 -89
-54 -128 -53 -187 1 -45 29 -148 41 -148 4 0 32 44 61 98 74 132 198 314 265
387 l55 60 -37 -63 c-21 -35 -51 -84 -67 -110 -56 -92 -136 -260 -165 -348
-45 -133 -62 -226 -65 -349 -5 -192 -8 -193 124 17 101 161 200 318 237 374
13 19 -17 -58 -35 -92 -90 -167 -580 -1164 -573 -1164 6 0 68 21 138 46 70 25
200 71 288 102 149 53 163 60 210 108 141 143 295 357 423 585 84 150 168 406
190 575 9 79 9 323 -2 459 -4 61 -10 130 -12 155 -11 153 -26 323 -30 340 -1
8 -3 36 -3 63 -1 31 -5 47 -13 47 -7 -1 -65 -18 -128 -39z m-28 -1322 c-32
-74 -71 -164 -87 -201 -16 -38 -35 -68 -42 -68 -7 0 -13 2 -13 5 0 5 50 118
122 275 19 41 40 90 48 108 8 20 16 30 22 24 6 -6 -14 -61 -50 -143z"/>
<path d="M5400 4011 c-41 -20 -130 -62 -198 -94 -122 -59 -142 -75 -142 -119
0 -52 12 -51 115 7 54 30 99 55 102 55 2 0 -30 -33 -70 -72 -74 -73 -119 -133
-132 -176 -7 -23 -6 -23 51 9 l59 32 -46 -51 c-25 -28 -62 -82 -83 -121 -41
-78 -119 -304 -106 -309 23 -8 286 40 320 59 58 33 148 184 185 311 9 32 16
59 16 60 0 2 4 21 10 43 17 73 25 218 20 361 0 18 -7 34 -13 36 -7 3 -47 -11
-88 -31z"/>
<path d="M4780 3929 c-190 -51 -451 -135 -518 -166 -56 -26 -72 -50 -72 -103
0 -16 4 -31 8 -34 9 -5 65 13 251 83 74 28 137 51 139 51 12 0 -95 -70 -221
-145 -85 -51 -142 -92 -157 -113 -22 -32 -41 -132 -25 -132 9 0 214 113 260
143 17 10 -34 -43 -113 -118 -79 -76 -163 -166 -188 -200 -42 -60 -101 -195
-85 -195 8 0 97 30 134 45 17 7 18 4 13 -29 -3 -20 -9 -60 -12 -88 -4 -29 -9
-57 -12 -63 -3 -5 5 -2 18 7 205 144 343 208 578 268 51 13 76 47 128 175 53
132 82 283 82 435 1 154 -12 220 -42 219 -12 0 -86 -18 -166 -40z"/>
<path d="M676 3490 c-78 -272 -104 -645 -60 -873 26 -141 44 -208 81 -308 20
-56 28 -66 44 -62 15 4 19 15 20 47 0 37 6 371 8 490 1 56 7 58 14 6 10 -63
21 -135 22 -140 1 -3 5 -36 10 -75 4 -38 9 -81 11 -95 1 -14 5 -74 9 -135 11
-191 14 -220 30 -296 26 -116 83 -225 160 -304 36 -37 68 -66 70 -63 2 2 -7
40 -20 86 -13 45 -26 96 -29 114 -3 18 -8 44 -11 58 -22 109 -23 373 0 500 5
32 11 64 20 115 8 44 46 193 68 267 19 60 14 130 -13 175 -30 50 -274 372
-389 513 l-29 35 -16 -55z"/>
<path d="M1435 3312 c-18 -46 -97 -258 -128 -342 -86 -235 -133 -432 -144
-603 -6 -111 4 -264 17 -251 6 7 43 118 66 199 2 6 19 57 38 115 l35 105 -5
-70 c-2 -38 -9 -92 -14 -120 -5 -27 -12 -63 -15 -80 -3 -16 -12 -68 -20 -115
-25 -146 -27 -163 -29 -245 -4 -162 37 -297 122 -398 l41 -48 21 21 c35 35
128 183 161 256 54 121 100 257 116 343 2 14 8 44 13 66 15 71 32 247 32 350
0 129 -7 202 -38 372 -10 56 -65 206 -95 261 -43 77 -102 156 -138 181 -27 19
-29 20 -36 3z"/>
<path d="M5429 3160 c-15 -4 -49 -10 -77 -14 -27 -3 -56 -8 -64 -10 -7 -3 -31
-7 -53 -10 -66 -8 -213 -32 -374 -61 -64 -11 -216 -54 -279 -79 -192 -76 -418
-240 -456 -331 -37 -87 -36 -87 251 59 146 75 268 135 270 133 1 -2 -72 -55
-164 -118 -241 -165 -396 -282 -436 -331 -34 -42 -67 -108 -67 -134 0 -8 115
63 256 157 141 94 259 168 262 164 4 -4 -11 -21 -33 -38 -21 -18 -49 -41 -61
-52 -12 -11 -72 -60 -132 -110 -61 -49 -109 -92 -106 -96 2 -4 55 -24 117 -44
61 -21 184 -62 272 -93 88 -30 177 -55 198 -55 49 1 98 35 207 143 134 134
230 268 320 448 73 149 195 462 182 473 -4 3 -19 3 -33 -1z m-270 -521 c-32
-65 -60 -106 -114 -167 -30 -34 -115 -107 -115 -99 0 4 42 58 121 157 11 14
46 59 77 101 31 43 58 76 60 74 2 -2 -11 -32 -29 -66z"/>
<path d="M3339 2916 c-2 -2 -29 -6 -59 -9 -69 -8 -199 -41 -246 -63 -52 -25
-100 -79 -118 -132 -27 -77 -24 -85 30 -77 25 3 56 8 67 11 12 2 51 9 87 15
101 16 109 17 210 34 52 9 104 18 115 22 14 3 17 2 10 -5 -5 -6 -134 -53 -285
-106 -262 -91 -277 -97 -316 -138 -37 -40 -84 -132 -72 -144 3 -2 30 5 59 16
105 42 168 61 314 96 11 2 -38 -24 -110 -59 -230 -112 -367 -214 -492 -364
-34 -41 -113 -156 -113 -165 0 -2 55 -3 123 -3 201 -1 365 -28 573 -96 70 -22
142 -41 160 -41 43 0 103 29 184 91 189 143 347 343 466 587 49 102 111 255
119 297 2 9 6 21 9 25 3 5 7 19 10 33 3 13 10 50 17 82 6 31 10 60 7 62 -3 3
-65 8 -139 11 -74 3 -147 7 -164 10 -42 6 -440 15 -446 10z m291 -846 c0 -10
-7 -17 -96 -96 -132 -117 -142 -125 -148 -115 -3 5 35 47 85 92 51 46 104 96
118 110 25 25 41 29 41 9z"/>
<path d="M4060 2129 c-102 -6 -146 -20 -198 -64 -27 -23 -70 -85 -59 -85 2 0
28 7 58 16 65 20 214 44 202 34 -4 -4 -117 -63 -250 -131 -182 -93 -243 -129
-243 -142 0 -14 5 -17 19 -12 11 3 28 8 38 10 114 24 178 38 230 51 35 9 68
14 74 12 6 -2 -71 -42 -172 -88 -101 -47 -209 -97 -239 -111 l-54 -26 107 -79
c59 -43 107 -80 107 -84 0 -3 -118 -45 -262 -94 -145 -49 -265 -91 -268 -94
-3 -3 0 -6 6 -9 24 -9 171 -120 218 -166 28 -28 80 -64 115 -80 58 -27 74 -30
160 -30 174 0 394 72 613 200 147 86 340 258 457 407 112 142 240 351 224 366
-11 10 -394 133 -513 164 -85 23 -157 34 -245 39 -16 1 -73 -1 -125 -4z m84
-859 c-5 -5 -54 -32 -109 -61 -55 -28 -124 -65 -153 -80 -61 -33 -75 -36 -70
-13 4 20 331 188 337 173 2 -6 -1 -15 -5 -19z"/>
<path d="M2409 1716 c-2 -2 -32 -6 -65 -9 -34 -3 -72 -8 -85 -11 -13 -3 -37
-8 -54 -10 -222 -35 -480 -155 -618 -288 l-62 -59 35 -30 c46 -39 163 -95 225
-107 49 -11 229 -8 295 3 19 4 63 13 98 21 34 7 76 16 92 19 16 3 60 12 97 21
88 21 100 23 153 30 25 3 53 8 64 10 34 6 7 -9 -52 -30 -310 -111 -361 -131
-347 -136 20 -7 250 -4 290 4 17 3 47 8 67 11 21 3 64 12 95 21 32 8 65 17 74
19 75 16 350 119 484 180 28 12 85 37 128 55 90 37 90 34 -18 105 -105 69
-299 140 -440 160 -22 4 -51 9 -65 11 -29 6 -385 15 -391 10z"/>
<path d="M900 1019 c-162 -166 -320 -327 -351 -358 -31 -31 -54 -62 -52 -68 4
-12 23 -2 82 44 53 40 292 213 317 228 33 21 13 -1 -207 -228 -74 -77 -133
-142 -132 -145 1 -3 8 -7 15 -8 7 -1 33 -7 58 -13 87 -20 103 -16 182 50 216
179 395 366 535 558 l47 63 -91 89 c-49 49 -94 89 -99 89 -5 0 -142 -136 -304
-301z"/>
<path d="M2900 1119 c-19 -3 -49 -9 -66 -13 -17 -3 -60 -17 -95 -30 -67 -25
-194 -62 -243 -70 -16 -3 -50 -8 -75 -12 -25 -4 -55 -8 -66 -10 -35 -7 -218
-6 -285 2 -36 3 -117 17 -180 30 -63 13 -117 21 -120 18 -9 -10 96 -100 152
-132 64 -36 156 -68 223 -78 27 -3 160 -8 295 -9 135 -2 254 -5 265 -8 11 -3
54 -8 95 -13 41 -4 78 -9 83 -10 4 -1 21 -2 39 -3 47 -2 25 -14 -30 -17 -96
-4 -474 -25 -512 -29 -39 -3 -40 -4 -40 -24 0 -21 51 -41 190 -76 13 -3 151
-27 205 -35 33 -5 132 -7 220 -5 172 4 227 9 335 30 14 3 34 7 45 9 59 12 285
75 285 80 0 2 -51 43 -112 92 -62 49 -120 95 -128 101 -224 183 -264 204 -410
216 -19 2 -51 0 -70 -4z"/>
</g>
</svg>
